<?xml version="1.0" encoding="UTF-8" standalone="no"?>
<svg width="111px" height="100px" viewBox="0 0 111 100" version="1.1" xmlns="http://www.w3.org/2000/svg" xmlns:xlink="http://www.w3.org/1999/xlink" xmlns:sketch="http://www.bohemiancoding.com/sketch/ns">
    <!-- Generator: Sketch 3.2.2 (9983) - http://www.bohemiancoding.com/sketch -->
    <title>increase_revenue + increase_revenue3</title>
    <desc>Created with Sketch.</desc>
    <defs>
        <rect id="path-1" x="0.514211683" y="0.983140302" width="92.558103" height="80.6031374"></rect>
    </defs>
    <g id="Page-1" stroke="none" stroke-width="1" fill="none" fill-rule="evenodd" sketch:type="MSPage">
        <g id="increase_revenue-+-increase_revenue3" sketch:type="MSLayerGroup">
            <g id="increase_revenue" transform="translate(0.000000, 17.827298)">
                <g id="Clipped" transform="translate(0.122016, 0.000000)">
                    <mask id="mask-2" sketch:name="SVGID_1_" fill="white">
                        <use xlink:href="#path-1"></use>
                    </mask>
                    <g id="SVGID_1_"></g>
                    <path d="M93.0394052,24.2172702 L89.6013858,0.983140302 L66.6366921,7.56648585 C64.9860726,8.03958364 64.0337525,9.76059229 64.5047704,11.4077115 C64.9809304,13.0548307 66.6870848,14.0174461 68.3582728,13.5340859 L79.7778858,10.2613986 L58.914261,42.8528075 L45.7977494,25.5985926 L29.630934,59.8781704 L18.3594139,49.3632898 L5.6995223,71.7312711 L5.6995223,1.38542736 L0.514211683,1.38542736 L0.514211683,81.5862777 L87.3676503,81.5862777 L87.3676503,76.4119631 L10.1947608,76.4119631 L19.8866226,59.2860284 L31.6199048,70.2360358 L47.0513975,37.5235303 L59.3503125,53.7042956 L85.1513979,13.4047794 L86.8822345,25.1203636 C87.1105444,26.6638323 88.4423527,27.7732004 89.9551635,27.7732004 C90.1073701,27.7732004 90.2585484,27.762938 90.4158971,27.7413869 C92.1117673,27.49201 93.2882836,25.9126228 93.0394052,24.2172702" id="Shape" fill="#000000" sketch:type="MSShapeGroup" mask="url(#mask-2)"></path>
                </g>
            </g>
            <g id="increase_revenue3" transform="translate(93.987437, 0.000000)" fill="#000000" sketch:type="MSShapeGroup">
                <path d="M8.50628141,0 C3.80872073,0 0,3.80403737 0,8.49582173 C0,13.1876061 3.80872073,16.9916435 8.50628141,16.9916435 C13.2048721,16.9916435 17.0125628,13.1876061 17.0125628,8.49582173 C17.0125628,3.80403737 13.2048721,0 8.50628141,0 L8.50628141,0 Z M10.8260042,11.7761381 C10.407535,12.2449017 9.8032235,12.5207836 9.01300325,12.6037507 L9.01300325,13.8057103 L8.00577314,13.8057103 L8.00577314,12.6099566 C6.68809698,12.4751186 5.87295599,11.7097645 5.55835648,10.3159188 L7.11590313,9.91040923 C7.26024409,10.78674 7.73789173,11.2244075 8.54884604,11.2244075 C8.92784075,11.2244075 9.20821576,11.1310531 9.38681444,10.9433485 C9.56541313,10.7556439 9.65472908,10.5295422 9.65472908,10.2640478 C9.65472908,9.98922789 9.56541313,9.78074839 9.38681444,9.63970447 C9.20821576,9.49763177 8.81051388,9.31819072 8.19477208,9.10041892 C7.64133214,8.908566 7.20830926,8.71979946 6.89679993,8.53106611 C6.5852906,8.34439034 6.33192968,8.08201547 6.13774722,7.74493711 C5.94356477,7.40682995 5.84597512,7.01273666 5.84597512,6.56471481 C5.84597512,5.97667784 6.02042035,5.44671777 6.36725068,4.97589659 C6.71408102,4.5061042 7.26024409,4.21880604 8.00580637,4.11406848 L8.00580637,3.18593315 L9.01303648,3.18593315 L9.01303648,4.11413486 C10.1386235,4.24897284 10.867572,4.88469925 11.1987853,6.02237607 L9.81153042,6.59070008 C9.54052561,5.81081019 9.12308649,5.42086525 8.55615613,5.42086525 C8.27162766,5.42086525 8.04318749,5.50798061 7.87186566,5.68221133 C7.69948055,5.85644205 7.61332123,6.06800792 7.61332123,6.31588016 C7.61332123,6.56892954 7.69639038,6.76287322 7.86252869,6.89873999 C8.02763694,7.03357797 8.38380425,7.20054078 8.92790721,7.40069039 C9.52600512,7.61849539 9.99534584,7.82485093 10.3348993,8.01879461 C10.6754828,8.21273829 10.9464877,8.48135228 11.1500071,8.82254581 C11.3524965,9.16480131 11.4542396,9.56407175 11.4542396,10.0214191 C11.4542063,10.7234859 11.2444401,11.3084033 10.8260042,11.7761381 L10.8260042,11.7761381 Z" id="Shape"></path>
            </g>
        </g>
    </g>
</svg>