<?xml version="1.0" encoding="UTF-8" standalone="no"?>
<svg width="75px" height="100px" viewBox="0 0 75 100" version="1.1" xmlns="http://www.w3.org/2000/svg" xmlns:xlink="http://www.w3.org/1999/xlink" xmlns:sketch="http://www.bohemiancoding.com/sketch/ns">
    <!-- Generator: Sketch 3.2.2 (9983) - http://www.bohemiancoding.com/sketch -->
    <title>save_money</title>
    <desc>Created with Sketch.</desc>
    <defs></defs>
    <g id="Page-1" stroke="none" stroke-width="1" fill="none" fill-rule="evenodd" sketch:type="MSPage">
        <g id="save_money" sketch:type="MSLayerGroup" fill="#000000">
            <g id="Page-1" sketch:type="MSShapeGroup">
                <g id="save_money">
                    <g id="Group">
                        <path d="M23.4772727,29.1503268 L10.3613637,18.0665479 C10.3613637,18.0665479 7.33068182,8.30659536 16.9193182,11.2085562 C16.9193182,11.2085562 22.7204545,13.3202614 26.2522727,8.30659536 C26.2522727,8.30659536 30.2863637,-6.99702911 42.1477273,4.08556149 C42.1477273,4.08556149 45.9340909,16.9459299 51.4863637,14.6036839 C51.4863637,14.6036839 57.2875,3.55912062 65.3613637,9.62685681 C65.3613637,9.62685681 70.6613637,16.7486631 54.2602273,29.1515152 L23.4772727,29.1515152 L23.4772727,29.1503268 L23.4772727,29.1503268 Z" id="Shape"></path>
                        <path d="M72.5579545,66.3529412 C72.5579545,66.3529412 71.0386363,56.9756388 52.6284091,41.2869875 L22.6045455,41.2869875 C22.6045455,41.2869875 3.67727273,59.7540107 0.654545455,69.7825312 C0.654545455,69.7825312 -2.88068182,92.2091503 24.1159091,98.5430779 C24.1159091,98.5430779 42.2818182,103.026738 58.9340909,95.3737374 C58.9329545,95.3737374 80.8875,90.0950683 72.5579545,66.3529412 L72.5579545,66.3529412 L72.5579545,66.3529412 Z M39.3965909,82.2852049 L39.3965909,87.4450386 L36.4034091,87.4450386 L36.4034091,82.4812834 C33.65,82.4301842 30.8465909,81.5353535 29.1840909,80.2947118 L30.325,76.9685086 C31.9863637,78.110517 34.4556818,79.103981 37.1125,79.103981 C40.4863637,79.103981 42.7659091,77.0623886 42.7659091,74.2341058 C42.7659091,71.5056446 40.9147727,69.81224 37.4,68.3279858 C32.5545455,66.3434343 29.5613637,64.0047534 29.5613637,59.6827095 C29.5613637,55.5614974 32.3647727,52.4325609 36.6863637,51.6874628 L36.6863637,46.7213309 L39.6795455,46.7213309 L39.6795455,51.540107 C42.4818182,51.6387403 44.4261363,52.4325609 45.8511363,53.2774807 L44.6659091,56.5549614 C43.6670455,55.9572193 41.7227273,54.8163993 38.6784091,54.8163993 C35.0261363,54.8163993 33.6488637,57.1027926 33.6488637,59.1396316 C33.6488637,61.6708259 35.4034091,62.9601901 39.5363637,64.7985739 C44.4261363,66.8888889 46.8988637,69.4188948 46.8988637,73.8360072 C46.8988637,77.81224 44.2863637,81.4842543 39.3965909,82.2852049 L39.3965909,82.2852049 L39.3965909,82.2852049 Z" id="Shape"></path>
                        <rect id="Rectangle-path" x="19.4784091" y="32.0819965" width="37.9556818" height="6.1449792"></rect>
                    </g>
                </g>
            </g>
        </g>
    </g>
</svg>