<?xml version="1.0" encoding="UTF-8" standalone="no"?>
<svg width="102px" height="100px" viewBox="0 0 102 100" version="1.1" xmlns="http://www.w3.org/2000/svg" xmlns:xlink="http://www.w3.org/1999/xlink" xmlns:sketch="http://www.bohemiancoding.com/sketch/ns">
    <!-- Generator: Sketch 3.2.2 (9983) - http://www.bohemiancoding.com/sketch -->
    <title>share_culture</title>
    <desc>Created with Sketch.</desc>
    <defs></defs>
    <g id="Page-1" stroke="none" stroke-width="1" fill="none" fill-rule="evenodd" sketch:type="MSPage">
        <g id="share_culture" sketch:type="MSLayerGroup" fill="#010101">
            <g id="Page-1" sketch:type="MSShapeGroup">
                <g id="share_culture" transform="translate(0.047339, 0.000000)">
                    <path d="M88.3663366,75 C85.2972475,75 82.5846535,76.221 80.4022574,78.016 L61.1575842,64.416 C62.3785545,61.926 63.117802,59.191 63.117802,56.25 C63.117802,52.209 61.7867525,48.475 59.5922376,45.422 L82.1029307,23.12 C83.9773069,24.207 86.036495,25 88.3663366,25 C95.3437426,25 100.990099,19.409 100.990099,12.5 C100.990099,5.591 95.3437426,0 88.3663366,0 C81.3889307,0 75.7425743,5.591 75.7425743,12.5 C75.7425743,14.807 76.5434257,16.846 77.6411881,18.701 L55.130495,41.004 C52.0240396,38.807 48.276297,37.5 44.1831683,37.5 C36.9593465,37.5 30.7454257,41.564 27.5531287,47.473 L12.352099,42.444 C11.7360594,39.637 9.33148515,37.5 6.31188119,37.5 C2.82267327,37.5 0,40.295 0,43.75 C0,47.205 2.82267327,50 6.31188119,50 C7.90146535,50 9.32037624,49.365 10.4292475,48.4 L25.5434257,53.393 C25.3949703,54.334 25.2475248,55.273 25.2475248,56.25 C25.2475248,66.602 33.7286733,75 44.1831683,75 C49.3851683,75 54.1064554,72.912 57.5350693,69.543 L76.6555248,83.057 C76.112198,84.448 75.7425743,85.926 75.7425743,87.5 C75.7425743,94.396 81.3889307,100 88.3663366,100 C95.3437426,100 100.990099,94.396 100.990099,87.5 C100.990099,80.604 95.3437426,75 88.3663366,75 L88.3663366,75 L88.3663366,75 Z" id="Shape"></path>
                </g>
            </g>
        </g>
    </g>
</svg>